PathFileType	4	(X/Y/Z)	Patient4_TMGait_0pt6_01_left_41.trc.trc
DataRate	CameraRate	NumFrames	NumMarkers	Units	OrigDataRate	OrigDataStartFrame	OrigNumFrames
82.840236686391	82.840236686391	4	33	mm	82.840236686391	53	       141
Frame#	Time	Sacral			L.Shoulder			Chest			R.Shoulder			Neck			R.ASIS			L.ASIS			R.Thigh.Superior			R.Thigh.Lateral			R.Thigh.Inferior			R.Patella			L.Thigh.Superior			L.Thigh.Lateral			L.Thigh.Inferior			L.Patella			L.Shank.Superior			L.Shank.Lateral			L.Shank.Inferior			R.Shank.Superior			R.Shank.Lateral			R.Shank.Inferior			R.Heel			R.Midfoot.Superior			R.Midfoot.Lateral			R.Toe			L.Heel			L.Midfoot.Lateral			L.Midfoot.Superior			L.Toe			L.Elbow			L.Wrist			R.Elbow			R.Wrist			
		X1	Y1	Z1	X2	Y2	Z2	X3	Y3	Z3	X4	Y4	Z4	X5	Y5	Z5	X6	Y6	Z6	X7	Y7	Z7	X8	Y8	Z8	X9	Y9	Z9	X10	Y10	Z10	X11	Y11	Z11	X12	Y12	Z12	X13	Y13	Z13	X14	Y14	Z14	X15	Y15	Z15	X16	Y16	Z16	X17	Y17	Z17	X18	Y18	Z18	X19	Y19	Z19	X20	Y20	Z20	X21	Y21	Z21	X22	Y22	Z22	X23	Y23	Z23	X24	Y24	Z24	X25	Y25	Z25	X26	Y26	Z26	X27	Y27	Z27	X28	Y28	Z28	X29	Y29	Z29	X30	Y30	Z30	X31	Y31	Z31	X32	Y32	Z32	X33	Y33	Z33	

53	50.507714285714	767.813210952697	1008.431678398118	413.698900921627	928.285399024636	1438.948162015101	231.315855969792	1030.289396051446	1379.813487804990	396.018902232327	937.724156687581	1449.468105111392	566.347454862606	901.548362335194	1501.309497829520	382.367925748406	993.573578801052	952.112822640137	533.573077057893	987.807409085760	973.040507024782	259.180303359216	1082.939163447016	787.369945222162	511.985076495586	1047.208093063890	665.864912747856	589.249087247988	1143.054489427929	629.505662261734	515.919648316851	1166.254874941645	516.505765184819	540.697566952182	1022.551686826222	753.170452143603	288.608634233850	923.703669798258	640.768109824410	234.337317633868	1005.219743875641	560.264342665590	294.991201560725	1001.604259630161	492.652004393061	306.804396150551	978.275688439164	421.492551374626	302.806489710631	888.765951813851	302.341622075697	262.286535267082	950.322105577228	196.823296047184	335.901704439135	1092.171717355948	438.728894796916	544.072930007299	970.228142473719	395.909726175152	600.496117446250	960.429160412788	287.049641835334	550.668943796279	761.356039901384	212.897428226323	515.445573187054	932.428115966893	169.519999505338	561.336118914774	822.535639991022	160.122287183421	591.868402272548	1006.303037583859	65.692121693485	594.322599393950	829.666033304295	38.668038631470	391.322139935725	902.664607006686	34.660345383815	309.072101737786	985.403313516986	97.660574159860	332.228371202388	1113.631794120392	47.849564210372	305.012078088222	975.352420896624	1087.948856533167	105.447334994820	1133.419567433065	880.100821191597	104.548402310995	897.581562417069	1101.395832770669	682.609414865250	1016.803336032336	868.600231438271	674.501234115848	
54	50.519785714286	766.363113127769	1008.593024355656	412.428386978937	928.575162666476	1439.379392741787	230.521660995313	1029.514879371918	1379.961910381424	395.752593617303	936.002499374224	1449.406398267744	565.612676615842	900.960857248852	1501.549783484316	381.612695149886	992.173086972685	952.952878333769	532.978998757090	987.682928049927	973.545817282208	258.207180030233	1083.333672279829	790.391622733997	511.088622768364	1049.885398768502	668.507067850915	588.821672787082	1145.688098355750	633.363786781735	514.952045576200	1171.301742134490	521.527341293317	539.902491934229	1019.779773365037	752.391096101474	288.628931669981	919.636968443267	640.859241007947	233.954892106521	999.862634652522	559.579915199269	295.026622544193	995.411123238709	492.170672297568	306.945448807336	972.040849242484	421.274403336134	302.832348069851	882.295676021230	302.359323736736	262.135554274459	943.389767155842	196.719756305921	335.962289345843	1100.123420608430	441.719850498524	544.001491428740	980.685205330333	393.824888534615	601.496361566511	975.274184705907	284.435397428447	552.042807578793	779.441286481495	201.594939373966	518.629326371278	952.473736033046	165.704750333901	563.240910200959	843.359057252856	151.739955655114	594.812375302155	1030.934542840827	65.228031503160	596.063233815638	822.342817749090	38.650600595833	391.351224411835	895.383430664539	34.659858878624	309.108024073852	978.132779278803	97.637058105235	332.285605841259	1106.356312000892	47.812451529479	305.041865436291	982.959622760346	1090.056530959837	103.703460612821	1149.935021577883	889.223681338006	102.693944605270	886.667329509014	1102.587273845635	681.209174236792	988.555974696179	861.135347010959	678.393734948436	
55	50.531857142857	764.914580073404	1008.670943697744	411.229565155556	928.969109673231	1439.714539064400	229.872426569975	1028.838557049905	1379.950627864636	395.602107657250	934.407641010483	1449.173626179871	565.012907637209	900.478664849892	1501.667677478751	381.015194952713	990.747263909190	953.572894501931	532.417515868215	987.451320725223	973.817966155969	257.382877105151	1083.373742738725	792.880504820597	510.269510488155	1051.929055956166	670.691215226114	588.344800971094	1147.488735883846	636.543718936271	513.834401362262	1175.365737501167	526.105623865207	538.943835483881	1017.105671617261	751.553453653799	288.838600704180	915.736677545198	640.885585218475	233.605333665680	994.613589756794	558.872950865553	295.161130116891	989.333337502623	491.656535876952	307.150678712982	965.903595954162	421.013355219704	302.908692201211	875.935232421835	302.342906156359	261.979017843076	936.493961238986	196.579399521975	336.063448725165	1107.412870913939	444.334956653064	543.896037431721	990.982546822248	391.080869918502	602.634414706585	990.359635190824	281.317663864011	553.582171319752	798.498711663148	189.229217581488	522.191597618193	973.271053044968	161.528997756523	565.397368077481	865.229676602670	142.718095623309	598.141002125300	1056.526999840313	64.859083361564	598.078137649897	815.033052918954	38.624658494841	391.385893461866	888.100857479131	34.654224692130	309.149715291539	970.859080123393	97.599591142831	332.374508965670	1099.082829222730	47.768494421832	305.086144466144	989.945669622962	1092.142926338867	102.148871939159	1165.808557585969	898.938593291739	101.215112840751	875.890146913091	1103.901807442819	679.842544097193	960.551127111820	855.634424783602	682.316697326152	
56	50.543928571429	763.501368018545	1008.670130351449	410.103595951431	929.469306997906	1439.936539472158	229.368027270997	1028.263849909444	1379.780538144732	395.573957141519	932.946017670498	1448.800071338996	564.545728073973	900.101895977013	1501.663387388814	380.560865641162	989.310237065031	953.966549660339	531.915993435504	987.077217540517	973.854009900160	256.731351930698	1083.039697497847	794.803311145844	509.506523336473	1053.307852138256	672.386173299735	587.838206591305	1148.445262020576	639.006809255289	512.604932781204	1178.435792352318	530.191919990510	537.864199116599	1014.555923114469	750.655662847948	289.177119270786	911.971030164297	640.856811591870	233.275620177951	989.454020963313	558.144950809681	295.355803815838	983.361819174950	491.115476050561	307.382953456317	959.844876109424	420.719270515040	303.007731012450	869.655639414234	302.301984684793	261.807381745500	929.623925642396	196.410530516447	336.185660477223	1114.004874709053	446.581205504557	543.770695115829	1001.098087355645	387.798895594461	603.884702233288	1005.605026691675	277.884201641010	555.228819669686	818.515696410357	176.159323731529	525.988690160978	994.677388678757	157.256433070513	567.705141073353	888.046403777398	133.390863349682	601.707226708238	1082.831105842847	64.866762485419	600.258496681072	807.738391923306	38.594400642771	391.417504979170	880.816276976654	34.643023287635	309.192330677422	963.581721022069	97.549892320528	332.484644140407	1091.809823070973	47.717419426394	305.141524055288	996.307052669161	1094.149894360365	100.760209984961	1180.971491263942	909.201184571368	100.100668055576	865.276243407921	1105.384136475193	678.550513233374	933.079096804720	852.038221551019	686.191519402777	
